<svg id="Слой_1" data-name="Слой 1" xmlns="http://www.w3.org/2000/svg" viewBox="0 0 450 450"><defs><style>.cls-1{fill:#59585c;}.cls-2{fill:#69696c;}.cls-3{fill:#b7ab9c;}.cls-4{fill:#b1aea3;}.cls-5{fill:#975e5f;}</style></defs><title>Монтажная область 1</title><path class="cls-1" d="M199.87,255.55A81.11,81.11,0,0,0,147,235.4V254a81.21,81.21,0,0,0,5.44,29.3,106.78,106.78,0,0,1,47.43-27.76Z"/><path class="cls-2" d="M227.5,312.52a81,81,0,0,0-23.63-53.22,102.08,102.08,0,0,0-49.47,28.64,81.47,81.47,0,0,0,73.1,47.41V312.52Z"/><path class="cls-2" d="M205.07,199.43a101.68,101.68,0,0,0-35.68,34.48A86,86,0,0,1,205.07,254V199.43Z"/><path class="cls-3" d="M167.92,172.73v55a106.23,106.23,0,0,1,37.15-33.56V172.73Z"/><polygon class="cls-3" points="243.58 130.93 208.36 130.93 171.21 168.09 206.43 168.09 243.58 130.93 243.58 130.93"/><path class="cls-4" d="M293.36,192.77l0,81a107.57,107.57,0,0,1,10.83,9.54A81.23,81.23,0,0,0,309.68,254l0-53.1-2.43-1.44a101.94,101.94,0,0,0-13.91-6.7Z"/><path class="cls-4" d="M288.73,186.21V171.37L249.2,131.89l-39.48,39.48v20.37a107.17,107.17,0,0,1,79-5.53Z"/><path class="cls-5" d="M240,245.29a30.1,30.1,0,0,1,4.61-16,18.45,18.45,0,0,0-6.27-6.62,18.68,18.68,0,0,0-7.64-2.75v23.68a18.58,18.58,0,0,0,14.08,18,29.59,29.59,0,0,1-2.72-5.35,30.2,30.2,0,0,1-2.06-11Z"/><path class="cls-5" d="M267.85,243.55V219.83a25.57,25.57,0,0,0-17,42.24,18.59,18.59,0,0,0,17-18.52Z"/><path class="cls-5" d="M242,219.54a23,23,0,0,1,3.81-6.07,18.72,18.72,0,0,0-4-2.1,18.21,18.21,0,0,0-4.4-1.11V217a23.53,23.53,0,0,1,3.3,1.73l1.24.85Z"/><path class="cls-5" d="M261,216.49v-6.23a18.57,18.57,0,0,0-15.34,12.61,22.81,22.81,0,0,1,1.86,2.39l1.25-1.32A30.19,30.19,0,0,1,261,216.49Z"/><path class="cls-4" d="M258.44,201.84V206a23.61,23.61,0,0,1,4.92-.52h2.33v9.94a30.09,30.09,0,0,1,4.48-.33h2.32v28.47a23.18,23.18,0,0,1-5.74,15.29,106.87,106.87,0,0,1,20,10.21l2,1.37,0-79.34a102.43,102.43,0,0,0-79,5.84v56.4a108.32,108.32,0,0,1,17.76-1.64,23.08,23.08,0,0,1-1.47-8.13l0-28.47h2.31a23,23,0,0,1,4.49.44V205.47h2.32a23.63,23.63,0,0,1,4.9.52,23.24,23.24,0,0,1,16.07-6.47h2.32v2.32Z"/><path class="cls-5" d="M253.8,207.53v-3.22a18.61,18.61,0,0,0-8.65,3.43,23.8,23.8,0,0,1,4.11,2.51,23.64,23.64,0,0,1,4.54-2.72Z"/><path class="cls-1" d="M232.15,323.76a65,65,0,0,1,14.78-21.63V291.19a4.65,4.65,0,0,0-1.36-3.29,4.7,4.7,0,0,0-3.23-1.36h-.06a4.64,4.64,0,0,0,4.65-4.65c.06-5.06,0-10.15,0-15.22a23.25,23.25,0,0,1-17.07-10.33h-1.52a101.7,101.7,0,0,0-19.15,1.81,85.7,85.7,0,0,1,22.95,54.27v11.35Z"/><path class="cls-1" d="M292.16,283.83c2.06,0,4.16.1,6.28.31a103.28,103.28,0,0,0-14.24-11.21,102.11,102.11,0,0,0-21.29-10.58,23.15,23.15,0,0,1-11.33,4.32v1.46a4.65,4.65,0,0,0,4.59,4.47h0a4.65,4.65,0,0,0-4.59,4.47v21a64.91,64.91,0,0,1,40.58-14.22Z"/><path class="cls-5" d="M301.68,289.22c-1.1-.17-2.2-.32-3.31-.43a60.42,60.42,0,0,0-65.06,46.41,81.49,81.49,0,0,0,68.37-46Z"/><path class="cls-1" d="M69.68,146.25a23.13,23.13,0,0,1-5.61-5.8,21.92,21.92,0,0,1-3.32-7.55,21.4,21.4,0,0,1-.18-8.45,20.53,20.53,0,0,1,3.7-8.46,19.21,19.21,0,0,1,8.21-6.83A17.45,17.45,0,0,1,81.92,108l-.21,6.6a12.66,12.66,0,0,0-4-.15,11,11,0,0,0-3.44,1.06,12.21,12.21,0,0,0-2.83,2,15.19,15.19,0,0,0-2.16,2.43,12.68,12.68,0,0,0-2.43,5.77,13.44,13.44,0,0,0,.45,5.72,16.73,16.73,0,0,0,2.63,5.19A19,19,0,0,0,74,140.63a17.85,17.85,0,0,0,5.62,2.73,16.74,16.74,0,0,0,5.92.62,14.57,14.57,0,0,0,5.55-1.58,12.27,12.27,0,0,0,4.42-3.87,14.82,14.82,0,0,0,1.62-2.94,12.32,12.32,0,0,0,.86-3.44,12.82,12.82,0,0,0-.14-3.7,11.2,11.2,0,0,0-1.39-3.72l6.06-2.78a13.28,13.28,0,0,1,1.82,5,18.84,18.84,0,0,1,.06,5.41,22.35,22.35,0,0,1-3.92,10.05,18.41,18.41,0,0,1-6.6,5.77,22.47,22.47,0,0,1-8.11,2.37,23.83,23.83,0,0,1-8.46-.71,23.16,23.16,0,0,1-7.65-3.58Zm64.09-53.4a10.24,10.24,0,0,1,2.3,4.34,10.92,10.92,0,0,1,.12,4.62,13.27,13.27,0,0,1-1.82,4.52,17.32,17.32,0,0,1-3.51,4l-16,13.76L86,90.62l17.28-14.86a8.65,8.65,0,0,1,3.81-2,10.27,10.27,0,0,1,4.09-.11,11.69,11.69,0,0,1,3.89,1.41,12.27,12.27,0,0,1,3.2,2.63A11.88,11.88,0,0,1,121,83.41a10.1,10.1,0,0,1-.82,6.25,11.27,11.27,0,0,1,7.21-.83,11.72,11.72,0,0,1,6.36,4Zm-6.28,3.67a7.38,7.38,0,0,0-2.06-1.68,7.69,7.69,0,0,0-2.36-.84,5.83,5.83,0,0,0-2.42.11,5.26,5.26,0,0,0-2.2,1.16l-11,9.49L116.21,115l10.72-9.22a6.18,6.18,0,0,0,1.59-2.06,6.68,6.68,0,0,0-1-7.21ZM95.27,90.65l8.48,9.87,9.72-8.37a5.68,5.68,0,0,0,1.5-1.94,6.63,6.63,0,0,0,.59-2.27,5.87,5.87,0,0,0-.33-2.39,7.08,7.08,0,0,0-1.35-2.28,6.84,6.84,0,0,0-4.29-2.51A5.24,5.24,0,0,0,105.27,82l-10,8.61Zm70.13-.55a19.28,19.28,0,0,1-8.63,1.82,21.2,21.2,0,0,1-8.18-1.84,22.59,22.59,0,0,1-6.9-4.77,23.21,23.21,0,0,1-4.8-6.91,22.55,22.55,0,0,1-2-8.39A23.8,23.8,0,0,1,136,61.66a21.28,21.28,0,0,1,4.09-7.28,19.66,19.66,0,0,1,7-5.18,19,19,0,0,1,8.67-1.76,21.57,21.57,0,0,1,8.18,1.94,23.57,23.57,0,0,1,6.88,4.78,23,23,0,0,1,6.8,15.2,22.56,22.56,0,0,1-1.12,8.33A22,22,0,0,1,172.34,85a19.41,19.41,0,0,1-6.94,5.14ZM143.35,75.47a18.86,18.86,0,0,0,3.4,5.1,16.57,16.57,0,0,0,4.71,3.54A13.86,13.86,0,0,0,157,85.54a12.69,12.69,0,0,0,5.88-1.19,12.24,12.24,0,0,0,4.84-3.73,14,14,0,0,0,2.48-5.18,17,17,0,0,0,.37-5.84,19,19,0,0,0-5-10.84,16.22,16.22,0,0,0-4.68-3.48,14.12,14.12,0,0,0-5.49-1.41,12.27,12.27,0,0,0-5.8,1.15,12.49,12.49,0,0,0-4.87,3.73,14.2,14.2,0,0,0-2.53,5.14,16.35,16.35,0,0,0-.41,5.82,18.46,18.46,0,0,0,1.54,5.76Zm71.36,1.26-2-16.62-8.59,1-8,17.85-7.85,1,8.61-18.8a13.68,13.68,0,0,1-6.76-4.2,13.58,13.58,0,0,1-2.2-3.43,14.09,14.09,0,0,1-1.14-4.12,13.45,13.45,0,0,1,.4-5.19,14.16,14.16,0,0,1,2.28-4.7A13.83,13.83,0,0,1,193.37,36a13.08,13.08,0,0,1,5.33-1.81L216.31,32l5.38,43.87-7,.86Zm-4.64-37.82-10,1.23a6.77,6.77,0,0,0-2.65.89,7,7,0,0,0-2.09,1.85A7.76,7.76,0,0,0,194,45.49a7.65,7.65,0,0,0-.22,3.07,8.67,8.67,0,0,0,.86,2.9,7.2,7.2,0,0,0,1.71,2.21A6.77,6.77,0,0,0,198.78,55a6.33,6.33,0,0,0,2.82.25L211.92,54l-1.85-15.08ZM247.41,77l10-43,18.07,4.2a12.27,12.27,0,0,1,5.09,2.46,14.2,14.2,0,0,1,3.47,4.16,15.23,15.23,0,0,1,1.71,5.13,14,14,0,0,1-.19,5.36,15.22,15.22,0,0,1-2.16,5,14.92,14.92,0,0,1-3.68,3.87,13.23,13.23,0,0,1-4.82,2.2,12.15,12.15,0,0,1-5.59,0l-11.64-2.71-3.48,15L247.41,77Zm11.67-19.4,11.22,2.61a5.81,5.81,0,0,0,2.78,0A6.23,6.23,0,0,0,275.5,59a8.63,8.63,0,0,0,1.93-2.24,10.25,10.25,0,0,0,1.23-3.1,9.53,9.53,0,0,0,.22-3.4,8,8,0,0,0-.93-2.87,7.24,7.24,0,0,0-1.84-2.15A6.22,6.22,0,0,0,273.67,44l-10.85-2.52-3.74,16.07Zm42.37,37.21a19.34,19.34,0,0,1-6.82-5.6,21.54,21.54,0,0,1-3.69-7.52,22.61,22.61,0,0,1-.6-8.37,23.18,23.18,0,0,1,2.39-8.08A22.54,22.54,0,0,1,298,58.39,23.46,23.46,0,0,1,305.21,54a21.08,21.08,0,0,1,8.24-1.37,19.63,19.63,0,0,1,8.41,2.21,18.81,18.81,0,0,1,6.8,5.65,21.74,21.74,0,0,1,3.61,7.59,23.69,23.69,0,0,1,.58,8.36,23,23,0,0,1-2.35,8,22.72,22.72,0,0,1-5.25,6.83A22,22,0,0,1,309.81,97a19.55,19.55,0,0,1-8.36-2.18Zm-2.4-26.35a18.53,18.53,0,0,0-1.84,5.83,16.33,16.33,0,0,0,.19,5.89,13.78,13.78,0,0,0,2.34,5.21,12.7,12.7,0,0,0,4.62,3.84,12.09,12.09,0,0,0,5.93,1.44,14,14,0,0,0,5.59-1.31A16.8,16.8,0,0,0,320.66,86,18.88,18.88,0,0,0,326,75.29a16,16,0,0,0-.22-5.83,14.13,14.13,0,0,0-2.33-5.17A13.28,13.28,0,0,0,313,59a14.34,14.34,0,0,0-5.59,1.25,16.41,16.41,0,0,0-4.79,3.33,18.59,18.59,0,0,0-3.53,4.81Zm49.31,10.29a15.36,15.36,0,0,1,7,.43,18.59,18.59,0,0,1,6.75,4q4.72,4.16,5.58,8.5c.57,2.91-.3,5.68-2.63,8.34a11.26,11.26,0,0,1-5.44,3.55,8.84,8.84,0,0,1-6.37-.66A10.1,10.1,0,0,1,353,116.7a12.52,12.52,0,0,1-9.81,4.44A15.33,15.33,0,0,1,337.6,120a18.93,18.93,0,0,1-5.34-3.36,18.59,18.59,0,0,1-5-6.66,15.35,15.35,0,0,1-1.17-7.54l6.59-.34a12.57,12.57,0,0,0,.56,5.21,11.67,11.67,0,0,0,6.13,6.42,8.05,8.05,0,0,0,3,.64,7,7,0,0,0,2.88-.59,6.79,6.79,0,0,0,2.5-1.86,6.63,6.63,0,0,0,1.6-5.93c-.44-2.23-1.93-4.46-4.45-6.67l-3-2.63,3.74-4.26,2.8,2.46A11.64,11.64,0,0,0,354.63,98a5.36,5.36,0,0,0,4.88-1.93,4.76,4.76,0,0,0,1.31-4.32,8.09,8.09,0,0,0-2.75-4.23A12,12,0,0,0,353.51,85a9.8,9.8,0,0,0-4.84-.19l-.31-6.07Zm43.94,38.11,3.5,5-26.17,39.65-4.22-6,7.15-10.73-9.79-14-12.48,3.13L346,127.83l46.27-11ZM376,140.65l11.47-16.72-19.77,4.89,8.3,11.83Z"/><path class="cls-1" d="M72.84,234.46l.57,7.37q.39,5.13-.93,7.53A5.23,5.23,0,0,1,67.93,252a5.78,5.78,0,0,1-3.71-.84,5.08,5.08,0,0,1-2.07-3.09H62a6.45,6.45,0,0,1-1.66,4,5.92,5.92,0,0,1-3.84,1.53,6.36,6.36,0,0,1-5.41-1.94,10.05,10.05,0,0,1-2.39-6.35l-.69-9,24.84-1.9Zm-10,4.85.3,3.91a6.65,6.65,0,0,0,1.09,3.65,3.09,3.09,0,0,0,2.83,1,2.75,2.75,0,0,0,2.43-1.45A7.93,7.93,0,0,0,70,242.3l-.26-3.51-6.86.52Zm-3.31.25-7.86.61.33,4.3a6.38,6.38,0,0,0,1.27,3.78,3.6,3.6,0,0,0,3.18,1.06,3.24,3.24,0,0,0,2.77-1.54,7,7,0,0,0,.63-4.1l-.32-4.11Zm2.89,42a6.73,6.73,0,0,1-6-.78c-1.65-1.19-2.9-3.28-3.74-6.25l-1.93-6.84,24-6.77,1.11,3.92-9.74,2.75.78,2.79q1.27,4.48.14,7.35a6.44,6.44,0,0,1-4.56,3.83Zm-7.34-10.87.75,2.69a7.29,7.29,0,0,0,2.06,3.7,3.57,3.57,0,0,0,3.4.5,3.3,3.3,0,0,0,2.46-2.09,8.42,8.42,0,0,0-.35-4.62l-.67-2.34-7.65,2.16Zm2.18,20.2-1.11-3.93,24-6.77,1.11,3.93-24,6.77ZM85.7,312.68a7.27,7.27,0,0,1-6.5.14q-3-1.47-4.9-5.77l-1.07-2.36-8.48,3.85-1.68-3.71,22.69-10.28,3,6.53c1.29,2.84,1.67,5.22,1.15,7.16a6.85,6.85,0,0,1-4.17,4.44Zm-9.35-9.4.89,2a7.74,7.74,0,0,0,2.9,3.74,4,4,0,0,0,3.7-.07,3.85,3.85,0,0,0,2.38-2.52,6.46,6.46,0,0,0-.73-4.16l-1.16-2.57-8,3.61Zm8.41,39.21,4.14-6.06-5.58-7.72-7,2.08-2.52-3.48,25.73-7.12,2.6,3.59L87.3,346l-2.54-3.51Zm6.37-9,4.13-5.86q.4-.61,1.32-1.83T98,324a39.27,39.27,0,0,1-4.5,1.6l-6.58,2,4.25,5.88Zm18.26,30.86,6.38,6.14,14.86-15.44,2.94,2.84L118.64,373.4l2.39,2.3-7.12,7.39-2.84-2.73,4.77-4.95L94.7,355.06,112,337.11l2.94,2.83-14.86,15.44,6.36,6.11,14.86-15.44,3,2.86-14.86,15.44Zm32.31,27.51-12.19-7.07L142,363.24l12.19,7.07-1.73,3-8.67-5-3.39,5.86,8.11,4.71-1.72,3-8.11-4.71-3.92,6.76,8.66,5-1.73,3Zm30.61,13.52-3.8-1.54,4.22-10.42-10.64-4.31-4.22,10.41L154.09,398l9.37-23.09,3.77,1.53-3.82,9.45,10.64,4.31,3.82-9.44,3.8,1.54-9.36,23.09Zm38.53-4.31q-1.12,6-4.75,8.74T197,411.52q-5.53-1-7.89-4.9c-1.56-2.57-2-5.87-1.2-9.91s2.35-7,4.75-8.76,5.45-2.33,9.14-1.63,6.25,2.32,7.81,4.9,2,5.86,1.23,9.85Zm-18.68-3.54c-.57,3-.4,5.42.53,7.2a7.55,7.55,0,0,0,10.78,2.07c1.5-1.32,2.54-3.49,3.11-6.54s.4-5.39-.51-7.17a6.47,6.47,0,0,0-4.92-3.34,6.62,6.62,0,0,0-5.87,1.3q-2.26,2-3.12,6.48Zm48.17-6.1a6.73,6.73,0,0,0-5.32,2.91,10.61,10.61,0,0,0-1.48,7c.23,3.05,1.05,5.3,2.46,6.77a6.82,6.82,0,0,0,5.76,1.91,15.1,15.1,0,0,0,3-.54c1-.29,2-.64,3-1l.27,3.49a18.93,18.93,0,0,1-6.54,1.61q-5.46.42-8.64-2.66c-2.11-2.06-3.33-5.13-3.64-9.24a15.27,15.27,0,0,1,.9-6.89,10.05,10.05,0,0,1,3.76-4.76,12.37,12.37,0,0,1,6.19-2,15.75,15.75,0,0,1,7.16,1.06l-1.2,3.49a20,20,0,0,0-2.75-.84,9.5,9.5,0,0,0-3-.23Zm48.22,12.37-3.93,1.09-5.72-20.65-6.82,1.89Q273.68,397,274,401t-.72,5.89a5,5,0,0,1-3.35,2.47,6.54,6.54,0,0,1-2.4.22l-.9-3.26a4.62,4.62,0,0,0,1.94-.1A2.12,2.12,0,0,0,270,404.3a31.45,31.45,0,0,0-.28-6.68q-.56-5.08-1.82-13.95l14-3.88,6.65,24Zm35.2-32q3.09,5.26,2.3,9.63t-5.34,7.05a10.31,10.31,0,0,1-8.35,1.39c-2.67-.77-5-2.7-7.05-5.78l-4.67,2.75,5.7,9.68-3.52,2.07L290.2,377.1l3.51-2.07,5.17,8.79L303.6,381q-2.18-4.67-1.13-8.44a10.61,10.61,0,0,1,5.25-6.24q4.54-2.69,8.75-1.23t7.28,6.66Zm-15.44,9.08c1.55,2.65,3.23,4.36,5,5.14a6.67,6.67,0,0,0,8.8-5.19q.27-2.93-2.06-6.87t-5-5.13a5.82,5.82,0,0,0-5.53.53,6,6,0,0,0-3.24,4.64c-.2,2,.48,4.24,2,6.88Zm40.56-23.47q4.86,5.7-2.45,11.94L340.9,374l-16.16-19,11.58-9.85,2.26,2.65-8.47,7.22,4.3,5.05,2.25-1.92q7.48-6.37,12.21-.81Zm-7.08,11.39,2.23-1.9a7.55,7.55,0,0,0,2.64-3.52,3.52,3.52,0,0,0-1-3.25,3.29,3.29,0,0,0-3-1.37q-1.63.19-4.23,2.4l-1.85,1.58,5.16,6.06Zm25-40.62q4.83,3.7,5.66,8.18t-2.57,8.88q-3.44,4.47-7.94,4.84t-9.39-3.4c-3.27-2.51-5.15-5.24-5.67-8.19s.38-5.91,2.67-8.9,4.89-4.53,7.89-4.76,6.13.87,9.35,3.35Zm-11.58,15.08c2.43,1.86,4.65,2.79,6.66,2.77a7.54,7.54,0,0,0,6.71-8.69c-.5-1.93-2-3.84-4.43-5.73s-4.63-2.78-6.63-2.78a6.49,6.49,0,0,0-5.2,2.89,6.62,6.62,0,0,0-1.49,5.83c.5,1.94,2,3.85,4.38,5.71Zm6.41-30,3.31-6.61q2.29-4.61,4.67-6a5.23,5.23,0,0,1,5.26.07,5.73,5.73,0,0,1,2.75,2.63,5,5,0,0,1,.18,3.71l.15.08a6.42,6.42,0,0,1,3.48-2.58,5.93,5.93,0,0,1,4.08.66,6.38,6.38,0,0,1,3.64,4.45,10,10,0,0,1-1.21,6.67l-4,8.05-22.28-11.15Zm11,1,1.75-3.5a6.76,6.76,0,0,0,.95-3.7,3.11,3.11,0,0,0-1.93-2.28,2.77,2.77,0,0,0-2.84,0,8,8,0,0,0-2.5,3.25l-1.58,3.15,6.15,3.08Zm3,1.48,7.06,3.53,1.93-3.86a6.45,6.45,0,0,0,.86-3.89,3.64,3.64,0,0,0-2.19-2.55,3.29,3.29,0,0,0-3.17-.1,7,7,0,0,0-2.64,3.19l-1.85,3.68Zm19.83-38.93a6.67,6.67,0,0,1,4.53,4.1c.7,1.95.55,4.41-.43,7.37l-2.44,7.37-23.65-7.84,1.28-3.87,9.61,3.19,1.11-3.35q1.49-4.5,4.07-6.28a6.33,6.33,0,0,1,5.92-.69Zm-.3,13.9,1.07-3.25a7.59,7.59,0,0,0,.41-4.31,3.41,3.41,0,0,0-2.48-2.37,3.32,3.32,0,0,0-3.25.41,9,9,0,0,0-2.37,4.2l-.94,2.81,7.56,2.51Zm.58-57q6.09.47,9.22,3.6t2.74,8.41a10.37,10.37,0,0,1-3.63,7.66q-3.24,2.61-8.77,2.48l-.41,5.4,11.2.86-.31,4.06L381,264.2l.31-4.06,10.16.77.42-5.47q-5.07-.85-7.58-3.89a10.59,10.59,0,0,1-2.13-7.87,10.18,10.18,0,0,1,4-7.88q3.58-2.64,9.63-2.17Zm-1.37,17.86c3.07.23,5.43-.16,7.1-1.19a6.69,6.69,0,0,0,.76-10.19c-1.5-1.26-3.78-2-6.82-2.23s-5.43.16-7.08,1.19a5.85,5.85,0,0,0-2.73,4.84,6,6,0,0,0,2,5.31c1.49,1.28,3.75,2,6.8,2.27Z"/></svg>